<svg width="470" height="324" viewBox="0 0 470 324" fill="none" xmlns="http://www.w3.org/2000/svg">
<path d="M12.3469 47.0101C12.3469 45.4866 14.1759 41.5255 15.0905 38.1738C16.005 34.822 27.8938 25.6809 28.8083 25.6809C29.54 25.6809 37.0391 25.6809 40.6972 25.6809H43.1359V22.3292L49.8424 17.1493L53.5005 13.4928L56.2441 14.7116L58.3781 12.274L61.7314 13.4928L63.2556 17.7587L70.8766 16.2351V19.8916L68.7428 22.9386L70.267 25.6809V31.4703L70.8766 40.6114L70.267 47.3149L74.5347 46.4007L76.059 41.2208L77.2783 37.8691H79.1074L82.1558 40.002L83.3752 37.8691C84.6961 36.3455 87.46 33.1766 87.9478 32.6891C88.4355 32.2016 88.7607 31.6734 88.8623 31.4703L97.093 32.6891L101.971 35.7361L99.2269 37.8691C99.2269 38.2753 99.2269 39.2707 99.2269 40.002C99.2269 40.7333 102.682 43.1506 104.409 44.2678L108.982 45.7913L100.446 57.9795V61.0265L101.971 64.3782L106.848 69.2535C106.645 71.3864 106.177 75.6522 105.933 75.6522C105.69 75.6522 103.8 78.0899 102.885 79.3087L99.2269 79.9181H96.1785L95.5688 75.6522C94.9591 75.6522 93.7398 75.4694 93.7398 74.7381C93.7398 74.0068 91.7075 70.777 90.6914 69.2535C89.8784 68.6441 87.8258 67.2424 86.1187 66.5111C84.4116 65.7799 82.7655 64.1751 82.1558 63.4641L83.3752 59.503C82.1558 58.3857 78.9854 56.1512 76.059 56.1512C73.1325 56.1512 73.8234 54.5262 74.5347 53.7136C74.2299 53.9167 73.3763 54.5668 72.4009 55.5418C71.1815 56.7606 69.9621 54.9324 68.7428 54.9324C67.7673 54.9324 67.1169 54.1199 66.9137 53.7136L67.5234 57.9795L66.9137 64.3782C66.8612 64.7454 66.8304 65.351 66.9137 65.9516M12.3469 47.0101C12.3469 48.5337 14.1759 50.6666 12.3469 52.7995C8.68879 57.6748 8.0791 62.2453 8.0791 64.0735C8.0791 65.9017 8.68879 71.3864 10.5178 72.3005C11.9811 73.0318 11.1275 75.246 10.5178 76.2616C9.70493 76.9726 8.0791 78.7602 8.0791 80.2228C8.0791 81.6853 6.45328 84.0823 5.64037 85.098C5.64037 85.5218 5.64037 86.5114 5.64037 87.5356M12.3469 47.0101L16.0051 53.7136C15.4971 55.1356 14.9687 57.9795 16.9196 57.9795C18.8706 57.9795 23.6262 61.0265 25.7601 62.55L34.9053 69.2535C35.7182 69.8629 38.6244 70.716 43.7457 69.2535C50.1474 67.4252 50.4522 66.5111 55.6346 66.5111C59.7804 66.5111 64.8814 66.1381 66.9137 65.9516M151.355 244.458C150.136 244.458 148.306 244.458 146.477 244.458C144.648 244.458 143.429 244.458 142.21 244.458C140.99 244.458 136.722 244.458 137.027 244.458C137.332 244.458 135.198 244.458 133.064 243.239C131.357 242.264 129.305 241.614 128.492 241.411C128.187 241.411 126.785 240.923 123.614 238.973C119.651 236.535 122.7 238.059 120.871 236.535C119.042 235.012 119.042 235.926 113.859 232.27C110.201 229.832 111.522 229.832 112.64 230.137C111.827 229.832 109.957 229.223 108.982 229.223C107.763 229.223 106.848 229.832 106.238 230.137C105.629 230.441 104.104 231.66 103.8 232.27C103.495 232.879 101.361 234.402 100.141 234.707C98.9221 235.012 98.9221 235.621 97.7027 236.535C96.4834 237.45 95.8737 237.754 94.9591 238.059C94.0446 238.364 93.4349 238.973 92.2156 239.582C90.9962 240.192 91.301 241.106 90.9962 242.629C90.6914 244.153 89.7768 244.458 89.1672 244.458C88.6794 244.458 87.1349 245.067 86.4236 245.372H83.0703L80.6316 247.505C79.9203 247.505 78.1928 247.505 76.9735 247.505C75.7541 247.505 75.246 247.505 75.1444 247.505L72.4009 249.028L70.8766 247.505L70.267 245.372L68.1331 246.591C67.2185 246.895 65.2066 247.505 64.475 247.505C63.7433 247.505 62.1378 247.505 61.4265 247.505C60.9185 247.302 59.4756 246.834 57.7684 246.591C55.6346 246.286 55.3297 246.286 55.3297 245.372C55.3297 244.458 56.8539 242.934 56.8539 242.02C56.8539 241.289 58.8862 240.497 59.9023 240.192C61.0201 239.989 63.4995 239.461 64.475 238.973C65.4505 238.485 64.8814 237.145 64.475 236.535C64.5766 236.028 64.7188 234.768 64.475 233.793C64.1701 232.574 63.5604 230.137 63.2556 228.004C62.9508 225.871 62.0362 225.566 61.4265 224.957C60.9388 224.469 60.2072 223.535 59.9023 223.128L57.7684 219.472C57.5652 218.659 57.0978 216.669 56.8539 215.206C56.7585 214.634 56.6631 214.211 56.5491 213.872M151.355 244.458C152.33 244.458 153.794 244.051 154.403 243.848C155.216 243.645 156.842 243.483 156.842 244.458C156.842 245.676 158.061 246.591 158.366 247.505C158.671 248.419 157.452 248.419 158.366 250.856C159.281 253.294 159.586 255.122 160.195 256.341C160.805 257.56 161.415 258.169 162.024 260.302C162.634 262.435 162.939 263.959 162.939 264.568C162.939 265.177 162.939 268.225 162.939 268.529C162.939 268.612 163.315 269.332 163.875 270.357M151.355 244.458L158.366 230.137L160.195 208.503M259.879 264.568L256.22 270.357C255.509 270.764 253.782 271.881 252.562 273.1C251.038 274.623 252.562 275.537 251.343 276.147C250.367 276.634 249.311 277.162 248.904 277.366H245.856L244.332 280.108C244.332 281.124 244.332 283.46 244.332 284.678C244.332 286.202 242.807 290.163 241.283 290.773C239.759 291.382 239.759 291.687 238.844 292.296C238.113 292.784 237.523 293.921 237.32 294.429L236.101 297.476C235.593 297.984 234.394 299.182 233.662 299.914C232.748 300.828 232.443 303.265 231.528 303.875C230.797 304.362 229.598 305.703 229.09 306.312C228.683 307.125 227.321 308.811 225.127 309.055C222.383 309.359 222.688 312.102 220.554 312.102C218.847 312.102 217.404 312.102 216.896 312.102L214.457 315.149L211.409 319.415L208.97 320.938L205.617 322.462C204.804 322.868 202.934 323.437 201.959 322.462C200.739 321.243 199.215 321.852 198.605 319.415C198.118 317.465 195.354 318.602 194.033 319.415L167.816 277.366C166.743 275.489 164.963 272.347 163.875 270.357M259.879 264.568H266.89L272.682 265.787C274.409 265.482 278.23 265.056 279.693 265.787C281.522 266.701 283.351 267.615 283.961 268.225C284.571 268.834 284.876 270.357 287.009 270.357C289.143 270.357 290.972 270.357 291.887 270.357C292.619 270.357 295.037 268.935 296.155 268.225C297.069 268.225 299.081 268.225 299.813 268.225C300.727 268.225 304.995 268.225 306.215 268.225C307.434 268.225 311.397 268.225 312.616 268.225C313.836 268.225 315.36 265.787 317.189 265.787C318.652 265.787 320.44 264.974 321.152 264.568C321.493 263.75 322.117 262.302 322.638 261.216M259.879 264.568L256.22 261.216L254.391 263.045H251.343L244.332 256.95L242.503 254.208M335.479 224.043C334.565 225.566 334.565 228.004 334.565 229.223C334.565 230.441 334.565 233.184 334.565 234.707C334.565 235.433 334.288 236.434 333.834 237.45M335.479 224.043C336.211 222.824 337.207 221.097 337.613 220.386L340.662 224.043C341.271 224.957 342.552 227.029 342.796 228.004C343.1 229.223 345.844 232.27 345.844 233.488C345.844 234.707 347.063 238.059 347.368 239.278C347.673 240.497 348.588 242.629 350.112 242.629C351.636 242.629 353.16 240.497 354.38 240.497C355.599 240.497 356.513 240.497 361.086 240.497C365.659 240.497 364.744 239.278 368.707 239.278C371.837 239.278 372.875 238.707 376.328 238.167M335.479 224.043L326.639 222.214L322.638 219.472L319.932 215.816M469 154.266L464.732 150C462.192 148.578 456.867 144.82 455.892 141.163C454.912 137.489 453.931 140.707 453.109 137.202M469 154.266C469 157.695 469 163.362 469 167.368M469 154.266L436.077 163.864L417.482 168.891M350.112 90.8874C351.331 90.8874 356.513 93.9344 358.952 95.4579C358.139 95.6611 358.038 95.9454 364.134 95.4579C371.755 94.8485 373.28 93.6297 374.499 93.6297C375.619 93.6297 376.996 93.1156 387.607 91.3789M350.112 90.8874C348.892 90.8874 322.371 79.9181 309.263 74.4334C307.535 75.4491 304.081 78.0289 304.081 80.2228C304.081 82.9651 305.91 85.7074 304.081 86.3168C302.252 86.9262 293.106 84.7933 289.143 86.3168C285.973 87.5356 281.319 86.8247 279.388 86.3168L269.329 87.8403L267.195 90.5827C268.821 94.1375 272.011 101.735 271.767 103.685C271.463 106.123 271.463 107.341 269.329 108.865C267.195 110.388 257.745 117.701 256.83 119.225C256.501 119.773 255.542 120.99 254.391 122.395M350.112 90.8874V101.552L354.684 103.685V117.701M157.757 154.57C159.484 155.383 163.305 157.008 164.768 157.008C166.231 157.008 167.816 155.383 168.426 154.57L177.571 152.742C179.095 153.351 182.632 154.57 184.583 154.57C187.021 154.57 187.936 154.57 191.594 154.57C193.565 154.57 198.105 153.42 202.873 152.264M157.757 154.57C156.131 153.351 152.269 150.731 149.831 150C147.392 149.268 144.953 147.054 144.039 146.039M157.757 154.57C159.078 158.531 162.329 166.454 164.768 166.454C167.207 166.454 172.694 166.454 175.133 166.454V169.805M144.039 146.039L139.771 144.21L140.381 139.335L144.039 140.554C143.734 139.132 143.124 136.044 143.124 135.069C143.124 134.094 140.482 132.429 139.161 131.718C138.348 130.092 136.722 126.66 136.722 125.928C136.722 125.197 136.722 123.998 136.722 123.491C137.332 122.373 138.673 120.322 139.161 121.053C139.649 121.784 142.006 121.967 143.124 121.967L140.381 117.397L135.808 115.264C135.605 114.248 135.503 112.156 136.722 111.912C137.942 111.668 140.482 113.029 141.6 113.74L144.039 115.264C146.477 114.959 150.928 114.106 149.221 113.131C147.514 112.156 142.21 109.881 139.771 108.865C138.45 107.646 135.808 105.087 135.808 104.599C135.808 103.99 134.589 104.599 133.064 104.599C131.54 104.599 131.235 105.818 130.016 105.208M144.039 146.039L130.016 161.274M130.016 105.208C129.04 104.721 128.187 103.99 127.882 103.685L130.016 100.638C128.492 100.638 125.382 100.638 125.138 100.638C124.834 100.638 122.395 100.333 121.48 99.4191C120.566 98.5049 119.651 95.7626 119.042 95.4579C118.554 95.2142 116.196 94.7469 115.079 94.5438L112.03 96.9814C112.234 97.3877 112.518 98.444 112.03 99.4191C111.421 100.638 112.335 101.552 110.201 102.161C108.067 102.771 108.982 104.904 106.848 102.771C104.714 100.638 106.238 101.857 104.714 99.4191C103.19 96.9814 104.104 97.5908 102.885 95.4579C101.666 93.325 101.056 93.325 98.6172 91.8015C96.6663 90.5827 95.1624 90.0748 94.6543 89.9733C94.5527 90.5827 94.2275 91.6187 93.7398 90.8874C93.1301 89.9733 93.1301 88.145 92.5204 87.5356C91.9107 86.9262 88.8623 87.2309 89.7768 86.3168C90.6914 85.4027 92.5204 84.1839 92.5204 82.9651C92.5204 81.7463 93.1301 82.9651 90.6914 81.1369C88.2526 79.3087 86.4236 78.3946 86.1187 78.6993C85.8749 78.943 85.2042 80.4259 84.8994 81.1369L83.3752 78.6993C82.359 77.6836 80.2048 75.6522 79.7171 75.6522C79.1074 75.6522 76.9735 76.2616 76.059 75.6522M130.016 105.208L93.7398 135.069M76.059 75.6522C75.1444 75.0428 73.9251 73.2146 73.0105 72.6052C72.096 71.9958 68.4379 68.3394 67.5234 67.4252C67.1696 67.0716 66.9917 66.5138 66.9137 65.9516M76.059 75.6522L79.7171 81.1369L78.4977 83.8792L82.1558 88.145C80.1235 89.2623 76.1809 91.4968 76.6686 91.4968C77.1564 91.4968 74.4331 94.7469 73.0105 96.372L67.5234 103.075C66.5072 105.005 64.414 108.926 64.1701 109.17C63.9263 109.413 62.6459 116.178 62.0362 119.529M79.1074 32.6891C78.8025 32.7907 78.1928 33.1157 78.1928 33.6032C78.1928 34.0907 79.209 34.2126 79.7171 34.2126C79.9203 34.3142 80.2048 34.3345 79.7171 33.6032C79.2293 32.8719 78.9041 32.486 78.8025 32.3844M5.64037 87.5356C5.64037 87.7388 5.64037 87.9433 5.64037 88.145C5.64037 89.6686 3.20164 90.5827 3.20164 92.1062C3.20164 93.6297 3.20164 95.1532 3.20164 96.372C3.20164 97.3471 3.20164 99.0128 3.20164 99.7238H1.67743V104.904H5.64037C6.45328 103.888 8.0791 102.466 8.0791 104.904C8.0791 107.341 8.0791 109.982 8.0791 110.998C8.68879 112.115 9.96912 114.776 10.213 116.482C10.213 120.626 10.213 119.631 10.213 118.615V122.881H8.0791C7.26619 123.084 5.64037 123.795 5.64037 125.014C5.64037 126.233 5.64037 127.96 5.64037 128.671C5.64037 129.889 5.64037 132.51 5.64037 133.241C5.64037 133.972 5.64037 135.577 5.64037 136.288V140.554L3.20164 142.992V146.953C2.69357 147.156 1.67743 147.806 1.67743 148.781C1.67743 150 0.153217 154.266 1.67743 154.266C2.89679 154.266 4.82746 156.094 5.64037 157.008C6.45328 157.414 8.0791 158.531 8.0791 159.75C8.0791 161.274 5.64037 162.797 5.64037 164.016C5.64037 164.43 5.34797 165.369 4.94917 166.454M5.64037 87.5356L12.9567 90.278L33.0763 110.998L35.8198 113.435L50.4522 114.654M50.4522 114.654L62.0362 119.529M50.4522 114.654C47.6071 117.803 41.246 125.38 38.5634 130.499M62.0362 119.529L86.4236 128.671L93.7398 135.069M38.5634 130.499C35.8808 135.618 24.0326 153.148 18.4439 161.274L12.9567 166.454H4.94917M38.5634 130.499L42.2215 136.288L48.928 137.812L56.5491 140.554H60.512L69.9621 150.304V159.75M4.94917 166.454C4.4076 167.927 3.6698 169.667 3.20164 170.72V173.462V176.814L1.67743 179.861C1.67743 180.064 1.67743 180.897 1.67743 182.603C1.67743 184.309 1.67743 185.955 1.67743 186.564V189.916L5.64037 188.088M5.64037 188.088L3.20164 193.572L5.64037 198.448C6.45328 198.854 8.0791 199.91 8.0791 200.885C8.0791 201.86 9.5017 203.932 10.213 204.846V200.885C11.026 200.885 13.0177 200.885 14.4809 200.885C15.9442 200.885 17.9358 200.885 18.7487 200.885L20.8826 202.409L23.3213 198.448V193.572L26.3697 191.439V189.002L30.0278 188.088H32.7714H38.5634H42.2215L44.9651 191.439L48.0135 197.838L49.2329 199.666L51.0619 203.323C51.0619 203.424 51.0619 204.054 51.0619 205.76C51.0619 207.467 52.4845 208.3 53.1958 208.503C53.6023 209.417 54.5981 211.428 55.3297 212.159C55.9581 212.787 56.2986 213.128 56.5491 213.872M5.64037 188.088L12.9567 182.603C17.4277 178.743 26.3697 170.78 26.3697 169.805C26.3697 168.83 36.9376 155.383 42.2215 148.781L69.9621 159.75M69.9621 159.75L105.933 208.503M105.933 208.503L56.5491 213.872M105.933 208.503L108.982 215.206L160.195 208.503M160.195 208.503L146.477 188.088L130.016 161.274M160.195 208.503L167.816 177.728L175.133 169.805M130.016 161.274L93.7398 135.069M175.133 169.805C176.108 169.805 177.165 170.415 177.571 170.72L183.363 166.454H185.497V169.805L183.363 173.767L188.241 175.9L189.765 169.805L196.167 173.767C196.065 174.884 196.045 177.118 196.776 177.118C197.691 177.118 200.739 176.509 200.739 177.118C200.739 177.606 200.739 180.775 200.739 182.298L197.996 184.431V188.088H202.873V192.658L199.52 195.705L205.922 197.533M158.366 245.372L164.768 236.535L172.084 234.707L180.62 219.472L177.571 213.872C181.737 212.082 189.704 208.503 188.241 208.503C186.777 208.503 192.915 210.94 196.167 212.159M196.167 212.159L199.52 219.472H205.922L210.189 223.128L212.323 224.957M196.167 212.159L196.776 209.722L198.91 203.932L204.702 200.58L205.922 197.533M212.323 224.957L163.875 270.357M212.323 224.957L217.81 219.472M205.922 197.533H208.97L212.018 194.791M202.873 152.264C206.953 151.274 211.201 150.281 214.152 150C217.611 149.671 219.734 148.897 221.773 147.918M202.873 152.264V161.578L204.702 173.767L208.055 185.345L212.018 194.791M212.018 194.791L221.773 192.658L230.919 182.298M217.81 219.472H248.904L252.562 212.159M217.81 219.472V223.128L213.847 229.223L212.323 234.707H217.81L229.394 245.676V250.552L233.662 256.036H236.101L237.625 254.208H242.503M252.562 212.159L251.343 208.503L256.22 203.932V197.533L261.708 192.658L261.473 192.072M252.562 212.159L259.879 218.253L266.89 229.223M230.919 182.298L245.856 185.345L248.904 188.088L252.562 182.298L254.391 188.088H259.879L261.473 192.072M230.919 182.298V166.454M242.503 254.208L252.562 234.707V229.223M250.124 219.472L252.562 220.996V229.223M266.89 229.223L265.671 231.051L262.622 228.918L252.562 229.223M266.89 229.223L272.682 228.918L283.961 227.09L287.009 231.051V234.707M287.009 234.707V240.497H285.18L282.437 237.45L279.693 239.278L280.913 247.505L279.693 250.552V254.208L308.348 259.998L312.616 264.568L314.445 259.998L322.638 261.216M287.009 234.707L289.753 240.497L292.801 239.278L296.155 235.926M322.638 261.216C322.894 260.684 323.125 260.238 323.286 259.998C323.895 259.083 325.115 256.95 325.42 256.036C325.663 255.305 326.537 253.294 326.944 252.38L328.773 249.028L330.297 245.676C330.297 244.458 330.602 241.715 331.821 240.497C332.62 239.698 333.334 238.566 333.834 237.45M296.155 235.926L299.813 239.278L318.713 242.325H322.638L326.944 239.278L333.834 237.45M296.155 235.926L301.032 223.128L308.348 218.253M308.348 218.253L319.932 215.816M308.348 218.253L305.91 196.924M319.932 215.816V213.987H324.505L328.163 218.253H329.382L332.126 213.987L340.662 213.073L351.941 203.932V200.885L354.684 198.448L356.513 195.4M221.773 147.918C223.509 147.086 225.183 146.105 227.565 145.125C232.748 142.992 231.528 141.773 234.577 140.249C237.625 138.726 239.454 136.288 243.417 134.155C247.38 132.022 247.685 130.499 248.904 128.975C249.685 127.999 252.342 124.899 254.391 122.395M221.773 147.918L229.394 160.36L230.919 166.454M230.919 166.454L247.38 161.578L248.904 156.399L252.562 158.836L256.83 157.313M254.391 122.395L255.611 133.546M255.611 133.546L248.904 138.421V141.468L246.466 143.906L256.22 152.264L256.83 157.313M255.611 133.546L264.756 129.889M256.83 157.313L260.793 160.36M260.793 160.36L254.391 175.595L262.927 190.525M260.793 160.36L267.195 163.864M262.927 190.525L261.473 192.072M262.927 190.525L303.166 185.345M303.166 185.345V179.556M303.166 185.345L305.91 196.924M303.166 179.556L298.593 178.032L295.24 182.298L290.668 170.11L273.596 167.368L267.195 163.864M303.166 179.556L300.727 173.157L303.166 170.11L302.806 169.75M267.195 163.864L277.661 153.961M298.593 134.155L284.266 117.701M298.593 134.155L277.661 153.961M298.593 134.155H297.374L313.531 136.288M284.266 117.701L281.522 124.405L279.084 127.147L264.756 129.889M284.266 117.701L292.497 108.865M264.756 129.889L271.158 145.125L272.072 150L276.645 153.047L277.661 153.961M284.266 86.3168V93.0203L287.314 95.1532L284.266 97.2861L288.229 98.5049L292.497 108.865M292.497 108.865H326.029L329.992 117.701L330.907 123.795L331.821 126.538M331.821 126.538L324.505 133.546M331.821 126.538L335.479 123.795L350.112 122.395L354.684 117.701M324.505 133.546L313.531 136.288M324.505 133.546L333.041 167.368M313.531 136.288L310.787 144.21L306.215 143.601L305.3 145.125L308.958 147.562V150L304.69 154.875L305.3 161.578L310.177 160.36L312.921 158.531L317.494 161.578V163.864L321.761 168.891M281.522 148.781L284.266 153.961L293.411 160.36L302.806 169.75M302.806 169.75L321.761 168.891M321.761 168.891L329.382 169.196L333.041 167.368M333.041 167.368L343.71 170.11M305.91 196.924L321.761 192.658L354.684 189.002M343.71 170.11L354.684 171.329V189.002M343.71 170.11L360.171 158.531M354.684 189.002L356.513 195.4M354.684 189.002L360.781 191.135L358.952 184.126L362.305 181.079L364.134 184.126L377.547 174.071H384.864V171.329M356.513 195.4L357.733 198.448M354.684 117.701L360.171 128.975L358.952 131.108L360.781 137.202L358.952 140.249L360.171 158.531M360.171 158.531L360.781 156.703L364.134 153.961L376.328 152.133L389.131 150L394.314 149.013M387.607 91.3789C388.549 91.2249 389.563 91.0612 390.656 90.8874C395.289 90.3999 398.277 89.4654 399.191 89.0592L440.65 103.38C444.308 110.185 451.807 125.684 452.539 133.241C452.718 135.093 452.909 136.347 453.109 137.202M387.607 91.3789L380.291 98.5049L378.157 110.084L379.681 116.787L394.314 133.241L395.533 148.781M395.533 148.781L404.069 150L408.946 153.961M395.533 148.781L394.314 149.013M408.946 153.961L453.109 137.202M408.946 153.961L417.482 168.891M417.482 168.891L400.715 178.032M400.715 178.032L392.18 171.329H384.864M400.715 178.032V182.298L390.656 190.438M384.864 171.329V168.891L389.131 167.368L392.18 161.578L389.131 160.36V154.875L394.314 149.013M387.912 192.658L369.622 191.135L366.573 195.4L357.733 198.448M387.912 192.658L390.656 195.4L392.18 203.932L401.637 232.951M387.912 192.658L390.656 190.438M357.733 198.448L362.915 221.3L369.622 229.223L371.755 234.707L376.328 238.167M376.328 238.167C377.247 238.024 378.336 237.882 379.681 237.754C384.803 237.267 387.302 234.707 387.912 233.488H397.972C398.843 233.256 400.311 232.971 401.637 232.951M401.637 232.951C402.632 232.936 403.546 233.071 404.069 233.488C405.593 234.707 407.117 234.707 408.946 236.231C410.775 237.754 411.69 238.364 413.824 240.497C415.958 242.629 415.958 243.544 418.396 245.676C420.835 247.809 420.53 250.552 422.664 252.38C426.322 254.086 425.611 255.529 424.798 256.036L428.761 252.38C429.472 251.263 431.322 249.028 433.029 249.028C435.163 249.028 436.077 245.676 437.296 245.676C438.272 245.676 440.142 245.676 440.955 245.676V239.278C441.666 237.145 443.332 232.696 444.308 231.965C445.283 231.234 446.747 229.019 447.356 228.004C446.747 224.144 445.893 216.242 447.356 215.511C449.185 214.597 450.71 210.636 452.234 210.026C453.453 209.539 457.01 208.604 458.635 208.198L464.732 201.799C464.224 197.33 463.513 188.21 464.732 187.478C465.952 186.747 468.085 183.72 469 182.298C469 179.251 469 172.913 469 171.938C469 171.573 469 169.769 469 167.368M390.656 190.438L440.955 182.298L445.832 184.126L448.576 179.861L469 167.368M65.3895 14.7116C65.1863 13.7975 64.7188 11.6646 64.475 10.4458C64.1701 8.92228 63.2556 6.78936 63.8653 5.57054C64.475 4.35173 65.0847 1 66.9137 1C68.3769 1 71.5879 1 73.0105 1L78.1928 2.82822C77.888 3.53919 77.7661 5.32678 79.7171 6.78936C81.668 8.25193 83.9848 11.8677 84.8994 13.4928C84.8994 13.0866 84.8994 13.2491 84.8994 17.1493C84.8994 21.0495 83.8832 22.0245 83.3752 22.0245L81.2413 21.4151L79.1074 19.8916L77.2783 17.7587L74.5347 18.3681C74.2299 17.5555 73.4983 15.8086 73.0105 15.321C72.5228 14.8335 70.5718 14.7116 69.6573 14.7116H67.5234H65.3895ZM84.8994 24.4621C81.2413 24.4621 81.5461 24.4621 80.6316 25.6809C79.7171 26.8998 78.4977 25.9856 79.1074 27.5092C79.7171 29.0327 79.1074 29.3374 80.6316 29.3374C82.1558 29.3374 83.68 27.5092 83.9848 27.5092C84.2287 27.5092 85.509 26.2903 86.1187 25.6809L84.8994 24.4621Z" stroke="gray" stroke-width="2"/>
<path d="M99 107.5C99 109.386 98.2114 112.743 96.8931 115.639C96.2378 117.079 95.4807 118.339 94.6788 119.223C93.862 120.123 93.1242 120.5 92.5 120.5C91.8758 120.5 91.138 120.123 90.3212 119.223C89.5193 118.339 88.7622 117.079 88.1069 115.639C86.7886 112.743 86 109.386 86 107.5C86 103.91 88.9101 101 92.5 101C96.0899 101 99 103.91 99 107.5Z" fill="#D9D9D9" stroke="#FF0000" stroke-width="2"/>
<circle cx="92.5" cy="107.5" r="1.5" fill="#D9D9D9" stroke="#FF0000" stroke-width="2"/>
</svg>
